<svg xmlns="http://www.w3.org/2000/svg" width="184.125" height="40" viewBox="0 0 184.125 40">
  <g id="Logo" transform="translate(-369.155 -506.401)">
    <g id="Group_2" data-name="Group 2" transform="translate(369.155 506.401)">
      <path id="Path_9" data-name="Path 9" d="M454.573,610.138h10.75L458.95,600H448.2Z" transform="translate(-431.077 -580.092)" fill="#00a5ff"/>
      <path id="Path_10" data-name="Path 10" d="M375.529,563.339h10.75L379.9,553.2h-10.75Z" transform="translate(-369.155 -543.247)" fill="#00a5ff"/>
      <path id="Path_11" data-name="Path 11" d="M409.324,656.937h-10.75l6.374-10.138H415.7Z" transform="translate(-392.201 -616.937)" fill="#00a5ff"/>
      <path id="Path_12" data-name="Path 12" d="M429.541,516.54h-10.75l6.374-10.138h10.75Z" transform="translate(-408.039 -506.401)" fill="#00a5ff"/>
    </g>
    <g id="Group_3" data-name="Group 3" transform="translate(407.87 508.458)">
      <path id="Path_13" data-name="Path 13" d="M571.489,527.814h-3.239a6.789,6.789,0,0,1-3.412-.609,2.046,2.046,0,0,1-.9-1.874v-3.073a2.57,2.57,0,0,1,1.162-2.41c.806-.489,2.494-.737,5.017-.737a50.919,50.919,0,0,1,7.193.7l.25.038v-3.478l-.192-.022a63.393,63.393,0,0,0-6.96-.458c-4.067,0-6.91.529-8.448,1.574a5.552,5.552,0,0,0-2.358,4.914v2.159a6.9,6.9,0,0,0,1.66,4.989c1.1,1.132,3.062,1.706,5.824,1.706h3.157a6.012,6.012,0,0,1,3.38.684,2.646,2.646,0,0,1,.889,2.256v3.489a2.317,2.317,0,0,1-1.384,2.4,11.5,11.5,0,0,1-4.3.626,41.693,41.693,0,0,1-8.427-1.034l-.261-.055v3.821l.188.025a63.6,63.6,0,0,0,8.252.667c3.488,0,6.1-.564,7.762-1.677,1.69-1.131,2.546-3.2,2.546-6.139v-1.952c0-2.236-.524-3.9-1.557-4.949S574.331,527.814,571.489,527.814Z" transform="translate(-559.602 -515.895)" fill="#01126c"/>
      <path id="Path_14" data-name="Path 14" d="M688.815,549.3a4.578,4.578,0,0,0-2.112-1.2,12.031,12.031,0,0,0-2.517-.486c-.767-.056-1.827-.084-3.151-.084s-2.385.028-3.151.084a12.013,12.013,0,0,0-2.517.486,4.572,4.572,0,0,0-2.112,1.2,6.294,6.294,0,0,0-1.208,2.193,10.558,10.558,0,0,0-.49,3.435V561.9a9.912,9.912,0,0,0,.62,3.822,4.083,4.083,0,0,0,2.1,2.168,9.466,9.466,0,0,0,2.848.828,35.3,35.3,0,0,0,3.909.167c1.3,0,2.357-.028,3.151-.084a12.5,12.5,0,0,0,2.536-.464,4.8,4.8,0,0,0,2.108-1.135,5.509,5.509,0,0,0,1.214-2.074,9.758,9.758,0,0,0,.469-3.229v-6.977a10.571,10.571,0,0,0-.49-3.435A6.305,6.305,0,0,0,688.815,549.3Zm-7.78,16.708c-1.072,0-1.889-.028-2.429-.082a5.012,5.012,0,0,1-1.553-.418,1.721,1.721,0,0,1-.965-1.019,6.1,6.1,0,0,1-.277-2.043V554.3c0-1.764.342-2.861,1.015-3.26a14.282,14.282,0,0,1,8.418,0c.674.4,1.015,1.5,1.015,3.26v8.14a6.107,6.107,0,0,1-.277,2.043,1.723,1.723,0,0,1-.965,1.019,5.019,5.019,0,0,1-1.553.418C682.923,565.979,682.106,566.007,681.035,566.007Z" transform="translate(-647.304 -540.925)" fill="#01126c"/>
      <path id="Path_15" data-name="Path 15" d="M803.6,549.264h0c-1.268-1.154-3.294-1.738-6.022-1.738-3.6,0-5.807.6-6.677,1.821v-1.405h-4.129v29.172h4.171V567.62a3.944,3.944,0,0,0,1.722.847,12.958,12.958,0,0,0,3.294.422c1.1,0,2.06-.035,2.843-.1a12.294,12.294,0,0,0,2.537-.528,5.935,5.935,0,0,0,2.219-1.188,5.711,5.711,0,0,0,1.406-2.135,8.625,8.625,0,0,0,.556-3.238v-8.264A5.473,5.473,0,0,0,803.6,549.264Zm-7.6,1.394a8.373,8.373,0,0,1,4.161.734c.733.468,1.1,1.6,1.1,3.368v7.392c0,1.6-.363,2.636-1.08,3.075a8.655,8.655,0,0,1-4.143.695,8.276,8.276,0,0,1-4.058-.693c-.691-.439-1.042-1.475-1.042-3.077v-7.392c0-1.8.338-2.939,1.006-3.392A7.936,7.936,0,0,1,796,550.659Z" transform="translate(-737.56 -541.226)" fill="#01126c"/>
      <path id="Path_16" data-name="Path 16" d="M917.475,549.264h0c-1.267-1.154-3.294-1.738-6.022-1.738-3.6,0-5.807.6-6.677,1.821v-1.405h-4.129v29.172h4.171V567.62a3.942,3.942,0,0,0,1.722.847,12.958,12.958,0,0,0,3.294.422c1.1,0,2.06-.035,2.843-.1a12.291,12.291,0,0,0,2.537-.528,5.936,5.936,0,0,0,2.219-1.188,5.71,5.71,0,0,0,1.406-2.135,8.627,8.627,0,0,0,.556-3.238v-8.264A5.473,5.473,0,0,0,917.475,549.264Zm-7.6,1.394a8.372,8.372,0,0,1,4.161.734c.733.468,1.1,1.6,1.1,3.368v7.392c0,1.6-.364,2.636-1.08,3.075a8.655,8.655,0,0,1-4.143.695,8.276,8.276,0,0,1-4.058-.693c-.691-.439-1.042-1.475-1.042-3.077v-7.392c0-1.8.338-2.939,1.006-3.392A7.934,7.934,0,0,1,909.874,550.659Z" transform="translate(-826.766 -541.226)" fill="#01126c"/>
      <rect id="Rectangle_6" data-name="Rectangle 6" width="4.171" height="4.337" transform="translate(98.548 0)" fill="#01126c"/>
      <rect id="Rectangle_7" data-name="Rectangle 7" width="4.171" height="20.534" transform="translate(98.548 7.015)" fill="#01126c"/>
      <path id="Path_17" data-name="Path 17" d="M1060.323,565.492l-5.485-16.048H1050.3l7.849,20.608-3.238,8.564h4.371l10.244-29.172h-4.245Z" transform="translate(-944 -542.728)" fill="#01126c"/>
      <path id="Path_18" data-name="Path 18" d="M1166.13,548.8c-1.047-.857-3.238-1.274-6.7-1.274-2.211,0-4.719.126-7.453.375l-.2.018V551.1l.245-.032a53.857,53.857,0,0,1,6.866-.5,8.506,8.506,0,0,1,3.734.553,2.143,2.143,0,0,1,.908,2.054v2.981h-5.805c-2.932,0-4.866.431-5.912,1.318s-1.572,2.5-1.572,4.8c0,2.633.565,4.416,1.681,5.3s3.04,1.313,5.886,1.313c3.085,0,5.014-.514,5.847-1.565v1.149h4.047v-14.42C1167.7,551.387,1167.19,549.669,1166.13,548.8Zm-5.9,17.165c-.477.027-1.081.041-1.794.041h-.748c-1.392,0-2.306-.259-2.718-.771a4.683,4.683,0,0,1-.637-2.833c0-1.884.317-2.607.583-2.881s1.011-.6,3.063-.6h5.556v5.265a1.257,1.257,0,0,1-.407.982,2.7,2.7,0,0,1-1.288.571A11.349,11.349,0,0,1,1160.229,565.966Z" transform="translate(-1022.294 -540.925)" fill="#01126c"/>
    </g>
  </g>
</svg>
